# xmcd
#
# Track frame offsets: 
#        150
#        17823
#        29640
#        39908
#        84489
#        127630
#        146871
#        163148
#        182467
#        195085
#        232776
#        247531
#        273293
#
# Disc length: 3655 seconds
#
# Revision: 0
# Processed by: cddbd v1.5.2PL0 Copyright (c) Steve Scherf et al.
# Submitted via: ExactAudioCopyFreeDBPlugin 1.0
#
DISCID=930e450d
DTITLE=New Grass Revival - Live in Illinois 1978
DYEAR=2015
DGENRE=Bluegrass
TTITLE0=Intro-Dancing With The Angels
TTITLE1=When The Storm Is Over
TTITLE2=This Heart Of Mine
TTITLE3=With Care From Someone
TTITLE4=Doin' My Time
TTITLE5=That High Lonesome Sound
TTITLE6=Instrumental
TTITLE7=Sail To Australia
TTITLE8=Skippin' In The Mississippi Dew
TTITLE9=Instrumental
TTITLE10=White Freight Liner Blues
TTITLE11=Norwegian Wood
TTITLE12=WXRT Outro
EXTD=
EXTT0=
EXTT1=
EXTT2=
EXTT3=
EXTT4=
EXTT5=
EXTT6=
EXTT7=
EXTT8=
EXTT9=
EXTT10=
EXTT11=
EXTT12=
PLAYORDER=
